<svg xmlns="http://www.w3.org/2000/svg" width="48" height="48" viewBox="0 0 100 100" fill="none">
  <defs>
    <linearGradient id="g" x1="10%" y1="0%" x2="90%" y2="100%">
      <stop offset="0%" stop-color="#F8E0B8"/>
      <stop offset="45%" stop-color="#D4AF37"/>
      <stop offset="100%" stop-color="#9A7B1C"/>
    </linearGradient>
  </defs>
  <circle cx="50" cy="50" r="48" fill="#04231E"/>
  <path d="M50,18 C60,10 76,14 79,28 C82,40 76,54 73,62 C70,70 69,80 67,86 C66,89 63,89 62,85 C60,77 57,67 50,63 C43,67 40,77 38,85 C37,89 34,89 33,86 C31,80 30,70 27,62 C24,54 18,40 21,28 C24,14 40,10 50,18 Z" stroke="url(#g)" stroke-width="3" fill="rgba(212,175,55,0.08)" stroke-linecap="round" stroke-linejoin="round"/>
</svg>
